<mxfile host="app.diagrams.net" modified="2023-04-23T00:53:45.417Z" agent="Mozilla/5.0 (X11; Ubuntu; Linux x86_64; rv:109.0) Gecko/20100101 Firefox/112.0" etag="8oc4gIYYnUsNx0ksluCn" version="21.2.1" type="device">
  <diagram name="Page-1" id="TnYRLZDgac72MjN_YNSP">
    <mxGraphModel dx="2641" dy="1073" grid="1" gridSize="10" guides="1" tooltips="1" connect="1" arrows="1" fold="1" page="1" pageScale="1" pageWidth="850" pageHeight="1100" math="0" shadow="0">
      <root>
        <mxCell id="0" />
        <mxCell id="1" parent="0" />
        <mxCell id="LUTUzWpyJWgQdHDx1qsU-12" style="edgeStyle=orthogonalEdgeStyle;rounded=0;orthogonalLoop=1;jettySize=auto;html=1;entryX=0.5;entryY=0;entryDx=0;entryDy=0;" edge="1" parent="1" source="LUTUzWpyJWgQdHDx1qsU-1" target="LUTUzWpyJWgQdHDx1qsU-2">
          <mxGeometry relative="1" as="geometry">
            <Array as="points">
              <mxPoint x="140" y="140" />
            </Array>
          </mxGeometry>
        </mxCell>
        <mxCell id="LUTUzWpyJWgQdHDx1qsU-15" style="edgeStyle=orthogonalEdgeStyle;rounded=0;orthogonalLoop=1;jettySize=auto;html=1;" edge="1" parent="1" source="LUTUzWpyJWgQdHDx1qsU-1" target="LUTUzWpyJWgQdHDx1qsU-14">
          <mxGeometry relative="1" as="geometry" />
        </mxCell>
        <mxCell id="LUTUzWpyJWgQdHDx1qsU-35" style="edgeStyle=orthogonalEdgeStyle;rounded=0;orthogonalLoop=1;jettySize=auto;html=1;" edge="1" parent="1" source="LUTUzWpyJWgQdHDx1qsU-1" target="LUTUzWpyJWgQdHDx1qsU-34">
          <mxGeometry relative="1" as="geometry" />
        </mxCell>
        <mxCell id="LUTUzWpyJWgQdHDx1qsU-1" value="expr.t=&quot;9-5+2&quot;" style="rounded=0;whiteSpace=wrap;html=1;" vertex="1" parent="1">
          <mxGeometry x="450" y="110" width="120" height="60" as="geometry" />
        </mxCell>
        <mxCell id="LUTUzWpyJWgQdHDx1qsU-9" style="edgeStyle=orthogonalEdgeStyle;rounded=0;orthogonalLoop=1;jettySize=auto;html=1;" edge="1" parent="1" source="LUTUzWpyJWgQdHDx1qsU-2" target="LUTUzWpyJWgQdHDx1qsU-4">
          <mxGeometry relative="1" as="geometry" />
        </mxCell>
        <mxCell id="LUTUzWpyJWgQdHDx1qsU-25" style="edgeStyle=orthogonalEdgeStyle;rounded=0;orthogonalLoop=1;jettySize=auto;html=1;" edge="1" parent="1" source="LUTUzWpyJWgQdHDx1qsU-2" target="LUTUzWpyJWgQdHDx1qsU-5">
          <mxGeometry relative="1" as="geometry" />
        </mxCell>
        <mxCell id="LUTUzWpyJWgQdHDx1qsU-29" style="edgeStyle=orthogonalEdgeStyle;rounded=0;orthogonalLoop=1;jettySize=auto;html=1;entryX=0.5;entryY=0;entryDx=0;entryDy=0;" edge="1" parent="1" source="LUTUzWpyJWgQdHDx1qsU-2" target="LUTUzWpyJWgQdHDx1qsU-28">
          <mxGeometry relative="1" as="geometry" />
        </mxCell>
        <mxCell id="LUTUzWpyJWgQdHDx1qsU-2" value="expr.t=&quot;9-5&quot;" style="rounded=0;whiteSpace=wrap;html=1;" vertex="1" parent="1">
          <mxGeometry x="80" y="260" width="120" height="60" as="geometry" />
        </mxCell>
        <mxCell id="LUTUzWpyJWgQdHDx1qsU-8" style="edgeStyle=orthogonalEdgeStyle;rounded=0;orthogonalLoop=1;jettySize=auto;html=1;" edge="1" parent="1" source="LUTUzWpyJWgQdHDx1qsU-4" target="LUTUzWpyJWgQdHDx1qsU-7">
          <mxGeometry relative="1" as="geometry" />
        </mxCell>
        <mxCell id="LUTUzWpyJWgQdHDx1qsU-4" value="expr.t=&quot;9&quot;" style="rounded=0;whiteSpace=wrap;html=1;" vertex="1" parent="1">
          <mxGeometry x="-50" y="390" width="120" height="60" as="geometry" />
        </mxCell>
        <mxCell id="LUTUzWpyJWgQdHDx1qsU-5" value="&lt;b&gt;&lt;font style=&quot;font-size: 20px;&quot; color=&quot;#ff0000&quot;&gt;-&lt;/font&gt;&lt;/b&gt;" style="rounded=0;whiteSpace=wrap;html=1;" vertex="1" parent="1">
          <mxGeometry x="210" y="390" width="120" height="60" as="geometry" />
        </mxCell>
        <mxCell id="LUTUzWpyJWgQdHDx1qsU-19" style="edgeStyle=orthogonalEdgeStyle;rounded=0;orthogonalLoop=1;jettySize=auto;html=1;" edge="1" parent="1" target="LUTUzWpyJWgQdHDx1qsU-18">
          <mxGeometry relative="1" as="geometry">
            <mxPoint x="140" y="450" as="sourcePoint" />
          </mxGeometry>
        </mxCell>
        <mxCell id="LUTUzWpyJWgQdHDx1qsU-17" style="edgeStyle=orthogonalEdgeStyle;rounded=0;orthogonalLoop=1;jettySize=auto;html=1;" edge="1" parent="1" source="LUTUzWpyJWgQdHDx1qsU-7" target="LUTUzWpyJWgQdHDx1qsU-16">
          <mxGeometry relative="1" as="geometry" />
        </mxCell>
        <mxCell id="LUTUzWpyJWgQdHDx1qsU-7" value="term.t=&quot;9&quot;" style="rounded=0;whiteSpace=wrap;html=1;" vertex="1" parent="1">
          <mxGeometry x="-50" y="500" width="120" height="60" as="geometry" />
        </mxCell>
        <mxCell id="LUTUzWpyJWgQdHDx1qsU-14" value="&lt;font color=&quot;#ff0000&quot;&gt;&lt;b&gt;+&lt;/b&gt;&lt;/font&gt;" style="rounded=0;whiteSpace=wrap;html=1;" vertex="1" parent="1">
          <mxGeometry x="690" y="260" width="120" height="60" as="geometry" />
        </mxCell>
        <mxCell id="LUTUzWpyJWgQdHDx1qsU-16" value="&lt;font color=&quot;#ff0000&quot;&gt;&lt;b&gt;9&lt;/b&gt;&lt;/font&gt;" style="rounded=0;whiteSpace=wrap;html=1;" vertex="1" parent="1">
          <mxGeometry x="-50" y="610" width="120" height="60" as="geometry" />
        </mxCell>
        <mxCell id="LUTUzWpyJWgQdHDx1qsU-23" style="edgeStyle=orthogonalEdgeStyle;rounded=0;orthogonalLoop=1;jettySize=auto;html=1;entryX=0.5;entryY=0;entryDx=0;entryDy=0;" edge="1" parent="1" target="LUTUzWpyJWgQdHDx1qsU-21">
          <mxGeometry relative="1" as="geometry">
            <mxPoint x="750" y="320" as="sourcePoint" />
          </mxGeometry>
        </mxCell>
        <mxCell id="LUTUzWpyJWgQdHDx1qsU-31" style="edgeStyle=orthogonalEdgeStyle;rounded=0;orthogonalLoop=1;jettySize=auto;html=1;entryX=0.5;entryY=0;entryDx=0;entryDy=0;" edge="1" parent="1" source="LUTUzWpyJWgQdHDx1qsU-26" target="LUTUzWpyJWgQdHDx1qsU-27">
          <mxGeometry relative="1" as="geometry" />
        </mxCell>
        <mxCell id="LUTUzWpyJWgQdHDx1qsU-26" value="&lt;div align=&quot;center&quot;&gt;term.t=&quot;5&quot;&lt;/div&gt;" style="rounded=0;whiteSpace=wrap;html=1;fontStyle=1;align=center;" vertex="1" parent="1">
          <mxGeometry x="80" y="500" width="120" height="60" as="geometry" />
        </mxCell>
        <mxCell id="LUTUzWpyJWgQdHDx1qsU-27" value="&lt;font color=&quot;#ff0000&quot;&gt;&lt;span&gt;5&lt;/span&gt;&lt;/font&gt;" style="rounded=0;whiteSpace=wrap;html=1;fontStyle=1" vertex="1" parent="1">
          <mxGeometry x="80" y="610" width="120" height="60" as="geometry" />
        </mxCell>
        <mxCell id="LUTUzWpyJWgQdHDx1qsU-30" style="edgeStyle=orthogonalEdgeStyle;rounded=0;orthogonalLoop=1;jettySize=auto;html=1;entryX=0.5;entryY=0;entryDx=0;entryDy=0;" edge="1" parent="1" source="LUTUzWpyJWgQdHDx1qsU-28" target="LUTUzWpyJWgQdHDx1qsU-26">
          <mxGeometry relative="1" as="geometry" />
        </mxCell>
        <mxCell id="LUTUzWpyJWgQdHDx1qsU-28" value="expr.t=&quot;5&quot;" style="rounded=0;whiteSpace=wrap;html=1;" vertex="1" parent="1">
          <mxGeometry x="80" y="390" width="120" height="60" as="geometry" />
        </mxCell>
        <mxCell id="LUTUzWpyJWgQdHDx1qsU-37" style="edgeStyle=orthogonalEdgeStyle;rounded=0;orthogonalLoop=1;jettySize=auto;html=1;" edge="1" parent="1" source="LUTUzWpyJWgQdHDx1qsU-32" target="LUTUzWpyJWgQdHDx1qsU-33">
          <mxGeometry relative="1" as="geometry" />
        </mxCell>
        <mxCell id="LUTUzWpyJWgQdHDx1qsU-32" value="term.t=&quot;2&quot;" style="rounded=0;whiteSpace=wrap;html=1;" vertex="1" parent="1">
          <mxGeometry x="450" y="390" width="120" height="60" as="geometry" />
        </mxCell>
        <mxCell id="LUTUzWpyJWgQdHDx1qsU-33" value="&lt;font color=&quot;#ff0000&quot;&gt;&lt;b&gt;2&lt;/b&gt;&lt;/font&gt;" style="rounded=0;whiteSpace=wrap;html=1;" vertex="1" parent="1">
          <mxGeometry x="450" y="500" width="120" height="60" as="geometry" />
        </mxCell>
        <mxCell id="LUTUzWpyJWgQdHDx1qsU-36" style="edgeStyle=orthogonalEdgeStyle;rounded=0;orthogonalLoop=1;jettySize=auto;html=1;" edge="1" parent="1" source="LUTUzWpyJWgQdHDx1qsU-34" target="LUTUzWpyJWgQdHDx1qsU-32">
          <mxGeometry relative="1" as="geometry" />
        </mxCell>
        <mxCell id="LUTUzWpyJWgQdHDx1qsU-34" value="expr.t=&quot;2&quot;" style="rounded=0;whiteSpace=wrap;html=1;" vertex="1" parent="1">
          <mxGeometry x="450" y="260" width="120" height="60" as="geometry" />
        </mxCell>
        <mxCell id="LUTUzWpyJWgQdHDx1qsU-38" value="&lt;b&gt;&lt;font style=&quot;font-size: 20px;&quot; color=&quot;#ff0000&quot;&gt;A)&lt;/font&gt;&lt;/b&gt;" style="text;html=1;strokeColor=none;fillColor=none;align=center;verticalAlign=middle;whiteSpace=wrap;rounded=0;" vertex="1" parent="1">
          <mxGeometry x="480" y="50" width="60" height="30" as="geometry" />
        </mxCell>
        <mxCell id="LUTUzWpyJWgQdHDx1qsU-40" value="&lt;font color=&quot;#ff0000&quot;&gt;&lt;b&gt;5&lt;/b&gt;&lt;/font&gt;" style="rounded=0;whiteSpace=wrap;html=1;" vertex="1" parent="1">
          <mxGeometry x="1290" y="600" width="120" height="60" as="geometry" />
        </mxCell>
        <mxCell id="LUTUzWpyJWgQdHDx1qsU-46" style="edgeStyle=orthogonalEdgeStyle;rounded=0;orthogonalLoop=1;jettySize=auto;html=1;" edge="1" parent="1" source="LUTUzWpyJWgQdHDx1qsU-41" target="LUTUzWpyJWgQdHDx1qsU-42">
          <mxGeometry relative="1" as="geometry" />
        </mxCell>
        <mxCell id="LUTUzWpyJWgQdHDx1qsU-41" value="term.t=&quot;9&quot;" style="rounded=0;whiteSpace=wrap;html=1;" vertex="1" parent="1">
          <mxGeometry x="1140" y="390" width="120" height="60" as="geometry" />
        </mxCell>
        <mxCell id="LUTUzWpyJWgQdHDx1qsU-42" value="&lt;font color=&quot;#ff0000&quot;&gt;&lt;b&gt;9&lt;/b&gt;&lt;/font&gt;" style="rounded=0;whiteSpace=wrap;html=1;" vertex="1" parent="1">
          <mxGeometry x="1140" y="500" width="120" height="60" as="geometry" />
        </mxCell>
        <mxCell id="LUTUzWpyJWgQdHDx1qsU-45" style="edgeStyle=orthogonalEdgeStyle;rounded=0;orthogonalLoop=1;jettySize=auto;html=1;" edge="1" parent="1" source="LUTUzWpyJWgQdHDx1qsU-43" target="LUTUzWpyJWgQdHDx1qsU-41">
          <mxGeometry relative="1" as="geometry" />
        </mxCell>
        <mxCell id="LUTUzWpyJWgQdHDx1qsU-43" value="expr.t=&quot;9&quot;" style="rounded=0;whiteSpace=wrap;html=1;" vertex="1" parent="1">
          <mxGeometry x="1140" y="260" width="120" height="60" as="geometry" />
        </mxCell>
        <mxCell id="LUTUzWpyJWgQdHDx1qsU-52" style="edgeStyle=orthogonalEdgeStyle;rounded=0;orthogonalLoop=1;jettySize=auto;html=1;" edge="1" parent="1" source="LUTUzWpyJWgQdHDx1qsU-44" target="LUTUzWpyJWgQdHDx1qsU-47">
          <mxGeometry relative="1" as="geometry" />
        </mxCell>
        <mxCell id="LUTUzWpyJWgQdHDx1qsU-53" style="edgeStyle=orthogonalEdgeStyle;rounded=0;orthogonalLoop=1;jettySize=auto;html=1;" edge="1" parent="1" source="LUTUzWpyJWgQdHDx1qsU-44" target="LUTUzWpyJWgQdHDx1qsU-50">
          <mxGeometry relative="1" as="geometry" />
        </mxCell>
        <mxCell id="LUTUzWpyJWgQdHDx1qsU-59" style="edgeStyle=orthogonalEdgeStyle;rounded=0;orthogonalLoop=1;jettySize=auto;html=1;entryX=0.5;entryY=0;entryDx=0;entryDy=0;" edge="1" parent="1" source="LUTUzWpyJWgQdHDx1qsU-44" target="LUTUzWpyJWgQdHDx1qsU-58">
          <mxGeometry relative="1" as="geometry" />
        </mxCell>
        <mxCell id="LUTUzWpyJWgQdHDx1qsU-44" value="expr.t=&quot;5+2&quot;" style="rounded=0;whiteSpace=wrap;html=1;" vertex="1" parent="1">
          <mxGeometry x="1420" y="260" width="120" height="60" as="geometry" />
        </mxCell>
        <mxCell id="LUTUzWpyJWgQdHDx1qsU-54" style="edgeStyle=orthogonalEdgeStyle;rounded=0;orthogonalLoop=1;jettySize=auto;html=1;" edge="1" parent="1" source="LUTUzWpyJWgQdHDx1qsU-47" target="LUTUzWpyJWgQdHDx1qsU-48">
          <mxGeometry relative="1" as="geometry" />
        </mxCell>
        <mxCell id="LUTUzWpyJWgQdHDx1qsU-47" value="expr.t=&quot;5&quot;" style="rounded=0;whiteSpace=wrap;html=1;" vertex="1" parent="1">
          <mxGeometry x="1290" y="390" width="120" height="60" as="geometry" />
        </mxCell>
        <mxCell id="LUTUzWpyJWgQdHDx1qsU-55" style="edgeStyle=orthogonalEdgeStyle;rounded=0;orthogonalLoop=1;jettySize=auto;html=1;" edge="1" parent="1" source="LUTUzWpyJWgQdHDx1qsU-48" target="LUTUzWpyJWgQdHDx1qsU-40">
          <mxGeometry relative="1" as="geometry" />
        </mxCell>
        <mxCell id="LUTUzWpyJWgQdHDx1qsU-48" value="term.t=&quot;5&quot;" style="rounded=0;whiteSpace=wrap;html=1;" vertex="1" parent="1">
          <mxGeometry x="1290" y="500" width="120" height="60" as="geometry" />
        </mxCell>
        <mxCell id="LUTUzWpyJWgQdHDx1qsU-49" value="&lt;font color=&quot;#ff0000&quot;&gt;&lt;b&gt;2&lt;/b&gt;&lt;/font&gt;" style="rounded=0;whiteSpace=wrap;html=1;" vertex="1" parent="1">
          <mxGeometry x="1420" y="600" width="120" height="60" as="geometry" />
        </mxCell>
        <mxCell id="LUTUzWpyJWgQdHDx1qsU-57" style="edgeStyle=orthogonalEdgeStyle;rounded=0;orthogonalLoop=1;jettySize=auto;html=1;" edge="1" parent="1" source="LUTUzWpyJWgQdHDx1qsU-50" target="LUTUzWpyJWgQdHDx1qsU-51">
          <mxGeometry relative="1" as="geometry" />
        </mxCell>
        <mxCell id="LUTUzWpyJWgQdHDx1qsU-50" value="expr.t=&quot;2&quot;" style="rounded=0;whiteSpace=wrap;html=1;" vertex="1" parent="1">
          <mxGeometry x="1420" y="390" width="120" height="60" as="geometry" />
        </mxCell>
        <mxCell id="LUTUzWpyJWgQdHDx1qsU-56" style="edgeStyle=orthogonalEdgeStyle;rounded=0;orthogonalLoop=1;jettySize=auto;html=1;" edge="1" parent="1" source="LUTUzWpyJWgQdHDx1qsU-51" target="LUTUzWpyJWgQdHDx1qsU-49">
          <mxGeometry relative="1" as="geometry" />
        </mxCell>
        <mxCell id="LUTUzWpyJWgQdHDx1qsU-51" value="term.t=&quot;2&quot;" style="rounded=0;whiteSpace=wrap;html=1;" vertex="1" parent="1">
          <mxGeometry x="1420" y="500" width="120" height="60" as="geometry" />
        </mxCell>
        <mxCell id="LUTUzWpyJWgQdHDx1qsU-58" value="&lt;font color=&quot;#ff0000&quot;&gt;&lt;b&gt;+&lt;/b&gt;&lt;/font&gt;" style="rounded=0;whiteSpace=wrap;html=1;" vertex="1" parent="1">
          <mxGeometry x="1550" y="390" width="120" height="60" as="geometry" />
        </mxCell>
        <mxCell id="LUTUzWpyJWgQdHDx1qsU-61" value="&lt;font color=&quot;#ff0000&quot;&gt;&lt;b&gt;-&lt;/b&gt;&lt;/font&gt;" style="rounded=0;whiteSpace=wrap;html=1;" vertex="1" parent="1">
          <mxGeometry x="1680" y="260" width="120" height="60" as="geometry" />
        </mxCell>
        <mxCell id="LUTUzWpyJWgQdHDx1qsU-64" style="edgeStyle=orthogonalEdgeStyle;rounded=0;orthogonalLoop=1;jettySize=auto;html=1;entryX=0.5;entryY=0;entryDx=0;entryDy=0;" edge="1" parent="1" source="LUTUzWpyJWgQdHDx1qsU-63" target="LUTUzWpyJWgQdHDx1qsU-61">
          <mxGeometry relative="1" as="geometry" />
        </mxCell>
        <mxCell id="LUTUzWpyJWgQdHDx1qsU-65" style="edgeStyle=orthogonalEdgeStyle;rounded=0;orthogonalLoop=1;jettySize=auto;html=1;" edge="1" parent="1" source="LUTUzWpyJWgQdHDx1qsU-63" target="LUTUzWpyJWgQdHDx1qsU-44">
          <mxGeometry relative="1" as="geometry" />
        </mxCell>
        <mxCell id="LUTUzWpyJWgQdHDx1qsU-66" style="edgeStyle=orthogonalEdgeStyle;rounded=0;orthogonalLoop=1;jettySize=auto;html=1;" edge="1" parent="1" source="LUTUzWpyJWgQdHDx1qsU-63" target="LUTUzWpyJWgQdHDx1qsU-43">
          <mxGeometry relative="1" as="geometry" />
        </mxCell>
        <mxCell id="LUTUzWpyJWgQdHDx1qsU-63" value="expr.t=&quot;9-5+2&quot;" style="rounded=0;whiteSpace=wrap;html=1;" vertex="1" parent="1">
          <mxGeometry x="1420" y="130" width="120" height="60" as="geometry" />
        </mxCell>
        <mxCell id="LUTUzWpyJWgQdHDx1qsU-67" value="&lt;b&gt;&lt;font style=&quot;font-size: 20px;&quot; color=&quot;#ff0000&quot;&gt;B)&lt;/font&gt;&lt;/b&gt;" style="text;html=1;strokeColor=none;fillColor=none;align=center;verticalAlign=middle;whiteSpace=wrap;rounded=0;" vertex="1" parent="1">
          <mxGeometry x="1450" y="50" width="60" height="30" as="geometry" />
        </mxCell>
      </root>
    </mxGraphModel>
  </diagram>
</mxfile>
